<?xml version="1.0" encoding="UTF-8" standalone="no"?>
<!-- Created with Inkscape (http://www.inkscape.org/) -->

<svg
   width="13.623639mm"
   height="13.623507mm"
   viewBox="0 0 13.623639 13.623507"
   version="1.1"
   id="svg1"
   xml:space="preserve"
   xmlns:inkscape="http://www.inkscape.org/namespaces/inkscape"
   xmlns:sodipodi="http://sodipodi.sourceforge.net/DTD/sodipodi-0.dtd"
   xmlns="http://www.w3.org/2000/svg"
   xmlns:svg="http://www.w3.org/2000/svg"><sodipodi:namedview
     id="namedview1"
     pagecolor="#ffffff"
     bordercolor="#000000"
     borderopacity="0.25"
     inkscape:showpageshadow="2"
     inkscape:pageopacity="0.0"
     inkscape:pagecheckerboard="0"
     inkscape:deskcolor="#d1d1d1"
     inkscape:document-units="mm" /><defs
     id="defs1" /><g
     inkscape:label="Layer 1"
     inkscape:groupmode="layer"
     id="layer1"
     transform="translate(-56.965146,-211.05866)"><path
       d="m 60.336117,221.30369 -3.37097,-3.37848 3.44092,-3.43327 3.44091,-3.43328 3.3709,3.37091 3.37091,3.3709 -3.44085,3.44084 -3.44084,3.44085 z m 5.95564,-5.94718 -2.444,-2.44401 -0.85768,0.85768 -0.85768,0.85768 1.64755,1.64755 1.64755,1.64756 -1.63919,1.6539 -1.6392,1.6539 0.7722,0.806 0.77219,0.806 2.52113,-2.52113 2.52114,-2.52113 z m -4.64717,3.19154 0.61237,-0.57529 v -0.30463 -0.30464 l -0.66146,-0.6214 -0.66146,-0.62141 -0.66146,0.62141 -0.66146,0.6214 v 0.26756 0.26756 l 0.57529,0.61236 0.57529,0.61237 h 0.13526 0.13527 z"
       style="fill:#fe744f"
       id="path1-1" /></g></svg>
