<?xml version="1.0" encoding="UTF-8" standalone="no"?>
<!-- Created with Inkscape (http://www.inkscape.org/) -->

<svg
   width="13.648089mm"
   height="10.847917mm"
   viewBox="0 0 13.648089 10.847917"
   version="1.1"
   id="svg1"
   xml:space="preserve"
   xmlns:inkscape="http://www.inkscape.org/namespaces/inkscape"
   xmlns:sodipodi="http://sodipodi.sourceforge.net/DTD/sodipodi-0.dtd"
   xmlns="http://www.w3.org/2000/svg"
   xmlns:svg="http://www.w3.org/2000/svg"><sodipodi:namedview
     id="namedview1"
     pagecolor="#ffffff"
     bordercolor="#000000"
     borderopacity="0.25"
     inkscape:showpageshadow="2"
     inkscape:pageopacity="0.0"
     inkscape:pagecheckerboard="0"
     inkscape:deskcolor="#d1d1d1"
     inkscape:document-units="mm" /><defs
     id="defs1" /><g
     inkscape:label="Layer 1"
     inkscape:groupmode="layer"
     id="layer1"
     transform="translate(-53.12964,-172.55668)"><path
       d="m 58.243497,182.78206 -2.55825,-0.56809 -0.16093,-0.16154 -0.16093,-0.16154 2.54074,-1.5162 2.54075,-1.5162 0.13158,0.13158 0.13157,0.13157 -0.2767,1.00213 -0.2767,1.00212 0.10054,0.10053 0.10053,0.10053 0.75219,-0.39276 0.75219,-0.39277 0.78774,-0.82846 0.78774,-0.82847 -0.004,-0.98109 -0.004,-0.98109 -0.47862,-0.72088 -0.47863,-0.72087 -1.43333,-0.70126 -1.43332,-0.70126 h -1.68578 -1.68578 l -1.55123,0.70982 -1.55123,0.70983 0.91242,-0.94198 0.91242,-0.94198 1.41261,-0.52852 1.41261,-0.52853 h 1.97161 1.97161 l 1.3707,0.52083 1.3707,0.52082 0.88621,0.85895 0.88621,0.85895 0.2705,1.00454 0.27049,1.00455 -0.52309,1.18254 -0.5231,1.18254 -1.24075,0.78687 -1.24076,0.78686 -1.42623,0.29609 -1.42624,0.29608 0.55125,0.77415 0.55124,0.77415 -0.34875,-0.0272 -0.34874,-0.0272 z"
       style="fill:#000000"
       id="path1-7"
       inkscape:export-filename="path1-7.svg"
       inkscape:export-xdpi="96"
       inkscape:export-ydpi="96" /></g></svg>
