<?xml version="1.0" encoding="UTF-8" standalone="no"?>
<!-- Created with Inkscape (http://www.inkscape.org/) -->

<svg
   version="1.1"
   id="svg2"
   width="1719.9536"
   height="632.58594"
   viewBox="0 0 1719.9536 632.58594"
   xmlns="http://www.w3.org/2000/svg"
   xmlns:svg="http://www.w3.org/2000/svg">
  <defs
     id="defs6" />
  <g
     id="g8"
     transform="matrix(1.3333333,0,0,-1.3333333,-164.10918,752.75908)">
    <g
       id="g10"
       transform="scale(0.1)">
      <path
         d="m 14123.7,5112.1 c -10.9,106.9 -295.4,628.9 -485.5,518.3 -107.3,-62.4 79.5,-98.1 71.6,-322.5 -15.9,-457.4 -1233,-439.8 -1647.6,-370.1 -499.3,85.7 -974.2,218.2 -1449.4,382.1 -409.1,141.6 -878.91,329.6 -1327.56,325 -396.13,-2.2 -780.67,-74.7 -1105.63,-259 -338.73,-192.2 -454.42,-399.5 -498.97,-494 -44.54,94.5 -160.24,301.8 -498.96,494 -324.96,184.3 -709.5,256.8 -1105.64,259 -448.64,4.6 -918.43,-183.4 -1327.54,-325 -475.2,-163.9 -950.09,-296.4 -1449.42,-382.1 -414.56,-69.7 -1631.72,-87.3 -1647.64,370.1 -7.82,224.4 178.94,260.1 71.66,322.5 -190.07,110.6 -474.59,-411.4 -485.5,-518.3 -47.74,-317.7 157.56,-628.9 585.2,-580.3 120.21,14.6 537.47,191.9 558.83,-11.1 11.62,-111.8 -254.43,-178.5 -343.14,-217.3 -137.88,-59.4 -252.69,-217.2 -250.19,-343.7 3.22,-159.1 244.08,-172.2 380.89,-185.1 484.33,-44 949.64,-17.1 1383.79,210.1 384.73,201.1 675.83,548.5 1059.76,771.5 169.72,98.6 351.59,222.4 566.94,174.6 161.92,-36 293.83,-200.2 151.35,-323.3 -272.3,-236.3 -691.36,-254.6 -942.85,-549.8 -92.8,-108.5 -228.12,-282.5 -180.57,-423.1 53.14,-158.5 334.02,1.3 445.57,19.3 171.99,28.5 154.74,-157.8 50.72,-220 -142.1,-85.3 -288.36,-137.7 -387.31,-269.4 -177.8,-236.9 -173.73,-559.2 -106.92,-818.5 74.05,-286.2 213.67,-235.2 474.91,-126.3 466.59,192.7 594.38,444.9 657.43,878.8 20.26,139.9 225.72,165.3 272.83,27.1 25.25,-73.8 19.62,-154.3 24.87,-230.5 14.61,-213.4 328.93,-35.2 388.28,68.1 273.71,482.7 327.48,963.8 493.21,1469.9 63.53,193.6 212.97,487.5 476.88,538.5 231.85,44.8 473.11,-206.3 481.81,-384.9 53.77,-222 -411.72,-1099.2 -511.35,-1270.4 -207.57,-355.7 -350.88,-706.5 -247.03,-1108.7 43.79,-170.8 253.96,-83.9 335.32,4.4 125.5,136.6 254.06,-99 211.83,-197.2 -49.94,-117 -141.98,-187.8 -142.82,-323.9 -1.11,-193.3 449.09,-732.599 550.22,-787.9 1.45,-0.801 3.01,-1.301 4.58,-1.703 1.57,0.402 3.13,0.902 4.58,1.703 101.13,55.301 551.33,594.6 550.22,787.9 -0.84,136.1 -92.88,206.9 -142.81,323.9 -42.24,98.2 86.32,333.8 211.82,197.2 81.36,-88.3 291.54,-175.2 335.32,-4.4 103.85,402.2 -39.46,753 -247.03,1108.7 -99.63,171.2 -565.11,1048.4 -511.35,1270.4 8.71,178.6 249.96,429.7 481.81,384.9 263.92,-51 413.36,-344.9 476.88,-538.5 165.74,-506.1 219.5,-987.2 493.21,-1469.9 59.35,-103.3 373.68,-281.5 388.29,-68.1 5.25,76.2 -0.38,156.7 24.86,230.5 47.11,138.2 252.58,112.8 272.86,-27.1 63,-433.9 190.8,-686.1 657.4,-878.8 261.2,-108.9 400.9,-159.9 474.9,126.3 66.8,259.3 70.9,581.6 -106.9,818.5 -99,131.7 -245.2,184.1 -387.3,269.4 -104,62.2 -121.3,248.5 50.7,220 111.6,-18 392.4,-177.8 445.6,-19.3 47.5,140.6 -87.8,314.6 -180.6,423.1 -251.5,295.2 -670.5,313.5 -942.8,549.8 -142.53,123.1 -10.6,287.3 151.3,323.3 215.4,47.8 397.2,-76 566.9,-174.6 384,-223 675.1,-570.4 1059.8,-771.5 434.2,-227.2 899.5,-254.1 1383.8,-210.1 136.8,12.9 377.7,26 380.9,185.1 2.5,126.5 -112.3,284.3 -250.2,343.7 -88.7,38.8 -354.8,105.5 -343.1,217.3 21.3,203 438.6,25.7 558.8,11.1 427.6,-48.6 632.9,262.6 585.2,580.3"
         style="fill:#fe744f;fill-opacity:1;fill-rule:nonzero;stroke:none"
         id="path38" />
    </g>
  </g>
</svg>
