<?xml version="1.0" encoding="UTF-8" standalone="no"?>
<!-- Created with Inkscape (http://www.inkscape.org/) -->

<svg
   version="1.1"
   id="svg2"
   width="2677.552"
   height="374.21484"
   viewBox="0 0 2677.552 374.21484"
   xmlns="http://www.w3.org/2000/svg"
   xmlns:svg="http://www.w3.org/2000/svg">
  <defs
     id="defs6" />
  <g
     id="g8"
     transform="matrix(1.3333333,0,0,-1.3333333,-232.15466,2657.221)">
    <g
       id="g10"
       transform="scale(0.1)">
      <path
         d="m 3927.58,18058.2 c 823.06,-606.7 1877.04,-999.4 2908.18,-927.1 1122.78,76.4 1939.2,632 2680.03,1432.3 373.18,403.2 673.11,677.9 1199.11,841.8 349.2,108.8 705.1,173.7 1067.1,177 361.9,-3.3 717.8,-68.2 1067,-177 526,-163.9 825.9,-438.6 1199.1,-841.8 740.9,-800.3 1557.3,-1355.9 2680.1,-1432.3 1031.1,-72.3 2085.1,320.4 2908.1,927.1 680.6,501.6 1267.2,1275.5 2186.5,1294.2 -481.7,681.3 -1420.3,274.4 -1939.9,-79.9 -63.2,221.3 191.9,494 410,556.8 -299.8,112.1 -775,-180 -944.2,-312.4 -113.1,-88.5 -580.2,-706.2 -684.3,-525.3 -37.9,180.2 419.2,559.5 390.5,562.5 -498.1,52.2 -890.5,-572.2 -1061,-859.6 -413.1,-696.4 -889.7,-968.3 -1706.2,-910.2 -599.7,42.7 -1061,244.3 -1617.9,714.9 610.8,-145.5 965.5,-437 1620.7,-435.8 552.9,1 1039.2,180.8 1417.7,583.1 -73.6,105.7 -261.1,147.5 -380.3,189.7 -41.1,387.8 782.2,456.6 816.1,495.7 59.2,108.1 -505.4,409.6 -983.6,205.5 -108.2,-46.1 -306,-194.6 -430.2,-149.9 -86.8,30.9 -50.8,466.1 -517.9,406.6 -44.3,-5.7 147.5,-619.1 -516.8,-741.9 -674.2,-124.7 -1400.8,35.1 -1978,318.8 -679,325.2 -1227.5,574.7 -1935.5,557.3 -708.1,17.4 -1256.5,-232.1 -1935.61,-557.3 -577.21,-283.7 -1303.73,-443.5 -1977.99,-318.8 -664.25,122.8 -472.46,736.2 -516.8,741.8 -467.12,59.6 -431.1,-375.6 -517.92,-406.5 -124.18,-44.7 -322.01,103.8 -430.14,149.9 -478.2,204.1 -1042.88,-97.4 -983.67,-205.5 33.89,-39.1 857.21,-107.9 816.12,-495.7 -119.18,-42.2 -306.67,-84 -380.25,-189.7 378.48,-402.3 864.76,-582.1 1417.65,-583.1 655.2,-1.2 1009.9,290.3 1620.7,435.8 -556.9,-470.6 -1018.2,-672.2 -1617.9,-714.9 -816.43,-58.1 -1293.1,213.8 -1706.17,910.2 -170.52,287.4 -562.93,911.8 -1061.05,859.6 -28.7,-3 428.39,-382.3 390.55,-562.5 -104.15,-180.9 -571.22,436.8 -684.35,525.3 -169.16,132.4 -644.4,424.5 -944.17,312.4 218.13,-62.8 473.18,-335.5 410.05,-556.8 -519.65,354.3 -1458.22,761.2 -1939.89,79.9 919.21,-18.7 1505.88,-792.6 2186.42,-1294.2"
         style="fill:#fe744f;fill-opacity:1;fill-rule:nonzero;stroke:none"
         id="path40" />
    </g>
  </g>
</svg>
