<?xml version="1.0" encoding="UTF-8" standalone="no"?>
<!-- Created with Inkscape (http://www.inkscape.org/) -->

<svg
   width="142.54762mm"
   height="49.805473mm"
   viewBox="0 0 142.54762 49.805473"
   version="1.1"
   id="svg1"
   xmlns:inkscape="http://www.inkscape.org/namespaces/inkscape"
   xmlns:sodipodi="http://sodipodi.sourceforge.net/DTD/sodipodi-0.dtd"
   xmlns="http://www.w3.org/2000/svg"
   xmlns:svg="http://www.w3.org/2000/svg">
  <sodipodi:namedview
     id="namedview1"
     pagecolor="#ffffff"
     bordercolor="#000000"
     borderopacity="0.25"
     inkscape:showpageshadow="2"
     inkscape:pageopacity="0.0"
     inkscape:pagecheckerboard="0"
     inkscape:deskcolor="#d1d1d1"
     inkscape:document-units="mm" />
  <defs
     id="defs1" />
  <g
     inkscape:label="Layer 1"
     inkscape:groupmode="layer"
     id="layer1"
     transform="translate(-59.568262,-143.66366)">
    <path
       d="m 75.939276,183.8351 c -7.24753,0.96648 -10.22155,5.23894 -14.91737,9.08804 -2.82169,2.34896 -0.73116,-3.60749 -0.36558,-4.16636 1.67979,-2.62735 3.51504,-5.20742 5.8535,-7.47339 4.58656,-4.44475 10.93799,-6.67185 17.14551,-9.34856 7.13197,-3.07698 14.76504,-4.30083 23.034724,-5.02253 6.90191,-0.5988 13.72923,-1.4014 20.80972,-1.44762 15.21781,-0.12291 31.13422,1.67032 46.05789,-0.0115 7.81376,-0.88558 14.24713,-2.72819 20.36745,-5.90076 3.11479,-1.59364 2.90889,-5.54989 5.77575,-6.97544 3.12739,-1.52116 2.40779,3.84595 2.17983,4.55505 -0.66077,2.16721 -3.75771,5.07085 -5.94278,6.25478 -1.93296,1.02426 -6.48696,1.11776 -7.41667,2.93411 -1.29003,2.49812 4.58446,3.44149 -0.22691,5.04774 -2.75026,0.93706 -3.88166,3.38477 -6.56679,4.27035 -7.12356,2.36052 -15.43842,-1.8237 -23.04417,-3.6621 -3.71359,-0.91186 -7.37779,-2.45192 -11.1355,-2.89104 -4.28507,-0.47798 -3.70938,1.4182 -0.23742,2.76602 3.86591,1.36778 19.16986,8.57329 8.47979,8.7088 -3.21774,0.0693 -5.01308,1.96868 -7.91881,2.46242 -3.39107,0.58618 -6.00161,-0.52001 -9.29919,-1.57578 -0.37924,-0.12921 -0.41706,-0.14287 -0.31306,-0.11135 -8.09739,-2.78388 -15.59284,-7.09626 -24.05057,-9.26768 -4.07391,-1.04632 -8.3012,-1.27323 -12.32679,-0.81416 -1.15766,0.12712 -3.974114,1.04737 -1.953964,2.3122 1.234364,0.77528 3.507684,0.9234 4.926934,1.25957 4.02139,0.94232 8.3012,1.25012 10.70899,4.54454 2.15041,2.97297 -2.98557,3.75456 -4.74624,5.39757 -2.58743,2.35736 -6.78005,2.31324 -10.37177,1.32575 -5.665454,-1.53165 -1.494894,2.07373 -5.325084,2.67882 -3.3459,0.55468 -6.78005,-2.99502 -9.81815,-3.93734 -2.71244,-0.85512 -6.56784,-1.36672 -9.36327,-1.00009"
       style="fill:#fe744f;fill-opacity:1;fill-rule:nonzero;stroke:none;stroke-width:0.0105052"
       id="path70"
       inkscape:export-filename="path70.svg"
       inkscape:export-xdpi="96"
       inkscape:export-ydpi="96" />
    <path
       d="m 178.80711,162.2543 c -3.91739,0.16808 -7.36414,1.09779 -11.3393,1.08098 -4.10438,-0.0137 -8.19194,0.0346 -12.24169,0.15968 -7.13407,0.2185 -14.27235,-0.28259 -21.43583,-0.40655 -16.6129,-0.30991 -33.38864,1.08729 -48.280784,5.17801 -4.20208,1.14716 -8.2035,2.80908 -11.89608,4.68005 -0.91605,0.42967 -6.47855,4.62124 -7.16243,2.48868 -1.15768,-3.3438 10.20893,-7.82531 12.45599,-9.67212 2.25652,-1.99074 2.66097,-4.74414 5.40913,-6.54579 2.0233,-1.3205 4.58551,-2.07057 7.25488,-2.42354 2.745,-0.37294 7.10676,-0.82046 9.899044,-0.23321 3.27656,0.69019 -0.48219,3.33119 -0.52842,4.35649 -0.21431,2.13781 17.63821,-1.97077 19.87791,-2.47922 3.36272,-1.10199 6.70021,-2.27437 9.89274,-3.60433 2.65466,-1.1125 6.50796,-3.06646 10.14696,-2.28802 -0.20591,-0.0641 -0.20696,-0.0735 0.36452,0.0788 0.76268,0.23427 0.78474,0.25002 0.55888,0.1891 5.19482,1.95606 0.27839,5.40282 -2.49077,6.1823 -4.49833,1.27533 0.31515,2.3311 2.87316,2.21869 3.56021,-0.16703 7.17084,-0.63451 10.69218,-0.94862 6.55419,-0.61875 14.96358,-1.65036 19.37051,-5.14754 2.22185,-1.80059 6.24533,-1.06627 6.10246,2.16617 -0.14917,3.14841 5.43538,0.67233 6.33883,0.3036 4.90172,-2.15776 10.44951,-6.63718 9.43366,-12.19021 -0.17439,-0.91921 0.9171,-2.81434 2.14201,-0.92866 0.77108,1.19128 0.67443,2.55591 0.65026,3.63899 -0.0399,1.90669 -0.57673,5.42803 -2.11994,6.60881 -4.71262,3.65371 -8.10475,7.23913 -15.96788,7.53748"
       style="fill:#fe744f;fill-opacity:1;fill-rule:nonzero;stroke:none;stroke-width:0.0105052"
       id="path72"
       inkscape:export-filename="path70.png"
       inkscape:export-xdpi="96"
       inkscape:export-ydpi="96" />
  </g>
</svg>
